<!-- Generator: Adobe Illustrator 19.2.1, SVG Export Plug-In  -->
<svg version="1.1"
	 xmlns="http://www.w3.org/2000/svg" xmlns:xlink="http://www.w3.org/1999/xlink" xmlns:a="http://ns.adobe.com/AdobeSVGViewerExtensions/3.0/"
	 x="0px" y="0px" width="778.325px" height="646.043px" viewBox="0 0 778.325 646.043"
	 style="enable-background:new 0 0 778.325 646.043;" xml:space="preserve">
<style type="text/css">
	.st0{fill:#3FAE2A;}
	.st1{fill:#007934;}
	.st2{fill:#F6EC3E;}
	.st3{fill:#6FBF59;}
	.st4{fill:#86C555;}
	.st5{clip-path:url(#SVGID_3_);}
	.st6{fill:#FFFFFF;}
	.st7{fill:#BA2025;}
	.st8{fill:#166734;}
	.st9{fill:#010101;}
	.st10{clip-path:url(#SVGID_4_);}
	.st11{fill:#1C4404;}
	.st12{fill:url(#SVGID_5_);}
	.st13{clip-path:url(#SVGID_7_);}
	.st14{clip-path:url(#SVGID_9_);}
	.st15{fill:url(#SVGID_10_);}
</style>
<defs>
</defs>
<g>
	<g>
		<path class="st0" d="M373.014,502.68L373.014,502.68c-137.089,0-248.669-89.178-248.669-198.792
			c0-109.586,111.579-198.757,248.669-198.757c137.163,0,248.733,89.172,248.733,198.757
			C621.747,413.503,510.177,502.68,373.014,502.68 M373.014,128.404c-124.458,0-225.388,78.559-225.388,175.484
			c0,96.945,100.931,175.493,225.388,175.493c124.526,0,225.461-78.548,225.461-175.493
			C598.475,206.964,497.54,128.404,373.014,128.404"/>
		<path class="st1" d="M373.014,485.705c-61.594,0-119.579-18.704-163.244-52.713c-44.157-34.381-68.452-80.24-68.452-129.104
			c0-48.846,24.294-94.683,68.452-129.101c43.664-33.995,101.684-52.701,163.244-52.701c61.648,0,119.628,18.706,163.296,52.701
			c44.164,34.418,68.476,80.255,68.476,129.101c0,48.863-24.312,94.723-68.476,129.104
			C492.642,467.001,434.662,485.705,373.014,485.705"/>
		<path class="st2" d="M598.475,303.889c0,96.945-100.934,175.493-225.457,175.493c-124.462,0-225.391-78.548-225.391-175.493
			c0-96.924,100.929-175.485,225.391-175.485C497.542,128.403,598.475,206.964,598.475,303.889"/>
		<g>
			<path class="st0" d="M327.702,403.33c-1.6-1.308-3.586-2.198-5.699-2.198c-1.545,0-3.659,0.927-3.659,2.762
				c0,1.893,2.289,2.684,3.79,3.137l2.197,0.684c4.588,1.343,8.126,3.674,8.126,9.019c0,3.274-0.778,6.665-3.401,8.876
				c-2.569,2.176-6.055,3.093-9.381,3.093c-4.133,0-8.205-1.364-11.598-3.73l3.668-6.91c2.158,1.872,4.667,3.388,7.646,3.388
				c2.007,0,4.158-0.981,4.158-3.33c0-2.404-3.392-3.224-5.205-3.768c-5.412-1.53-8.961-2.918-8.961-9.337
				c0-6.7,4.734-11.045,11.391-11.045c3.342,0,7.418,1.041,10.333,2.702L327.702,403.33z"/>
			<path class="st0" d="M341.57,405.389v11.978c0,2.845,0.721,4.878,4.008,4.878c3.291,0,3.96-2.033,3.96-4.878v-11.978h7.961
				v13.537c0,7.392-5.21,9.656-11.921,9.656c-6.751,0-11.935-2.263-11.935-9.656v-13.537H341.57z"/>
			<path class="st0" d="M387.247,425.67L387.247,425.67c0,9.551-4.721,13.365-12.998,13.365c-5.192,0-12.079-2.637-12.787-8.555
				h8.923c0.239,0.803,0.809,1.329,1.492,1.691c0.708,0.368,1.544,0.508,2.273,0.508c4.288,0,5.137-2.76,5.137-6.417v-1.052
				c-2.069,2.074-4.19,3.064-7.14,3.064c-6.551,0-11.093-4.959-11.093-11.458c0-6.548,4.642-12.179,11.531-12.179
				c2.629,0,5.026,0.867,6.612,3.108h0.09v-2.357h7.96V425.67z M369.281,416.458c0,2.854,1.912,5.041,5.127,5.041
				c3.285,0,5.136-2.188,5.136-5.041c0-2.737-1.851-5.07-5.136-5.07C371.194,411.388,369.281,413.722,369.281,416.458"/>
			<path class="st0" d="M416.795,427.846L416.795,427.846h-7.954v-2.486h-0.053c-1.422,2.231-4.204,3.222-6.836,3.222
				c-6.625,0-11.316-5.543-11.316-12.007c0-6.42,4.615-11.937,11.247-11.937c2.563,0,5.269,0.993,6.957,2.929v-2.179h7.954V427.846z
				 M398.86,416.648c0,2.851,1.869,5.023,5.108,5.023c3.268,0,5.135-2.173,5.135-5.023c0-2.772-1.866-5.094-5.135-5.094
				C400.729,411.554,398.86,413.876,398.86,416.648"/>
			<path class="st0" d="M430.05,409.057h0.082c1.563-2.745,4.204-3.975,7.302-3.975h1.517v7.646c-1.082-0.593-2.138-0.71-3.365-0.71
				c-4.425,0-5.536,2.915-5.536,6.75v9.078h-7.953v-22.457h7.953V409.057z"/>
		</g>
		<polygon class="st1" points="266.887,47.146 349.407,250.178 322.313,252.241 260.339,56.735 		"/>
		<path class="st3" d="M356.378,245.112l12.812-27.252c-26.556-158.324-81.273-2.065-81.273-2.065
			C316.808,154.041,343.678,116.128,356.378,245.112"/>
		<path class="st3" d="M285.367,253.28c0,0-36.482-38.539-74.001-57.796c0,0,49.006,39.07,63.539,59.907L285.367,253.28z"/>
		<path class="st1" d="M500.616,87.016L387.944,248.06l20.313,1.053c0,0,83.988-121.588,98.066-142.408L500.616,87.016z"/>
		<polygon class="st4" points="266.887,47.146 247.812,138.43 253.189,42.398 		"/>
		<path class="st1" d="M355.16,250.662c0,0,51.03-239.059,99.429-249.475c0,0,38.026-14.556,44.304,58.349
			c0,0-13.554-63.031-38.515-48.949c-25.028,14.046-77.635,242.16-77.635,242.16L355.16,250.662z"/>
		<path class="st3" d="M461.316,0.181L462.054,0c-4.464,0.047-7.464,1.187-7.464,1.187
			c-48.399,10.415-99.429,249.475-99.429,249.475l14.966,1.136C373.547,224.957,423.238,2.193,461.316,0.181"/>
		<polygon class="st4" points="500.616,87.016 519.26,87.016 523.418,199.608 		"/>
		<path class="st0" d="M44.678,447.488c0,0,314.974-199.679,677.3,2.059l-36.025-78.243l35.01-39.107
			C341.125,137.664,41.625,329.09,41.625,329.09l41.126,37.089L44.678,447.488z"/>
	</g>
	<path class="st1" d="M429.892,247.225c0,0,68.269-60.521,113.605-43.171c0,0-36.564-19.067-98.037,44.596L429.892,247.225z"/>
	<g>
		<path class="st2" d="M117.451,307.036l27.86-8.903l10.292,34.272l0.658-0.181c-0.441-3.448,0.424-6.823,1.093-10.147l5.657-29.635
			l31.178-9.996l-12.343,46.155l40.135,31.622l-33.122,10.616l-21.198-19.406c-2.621-2.488-6.069-4.609-7.72-7.644l-0.616,0.2
			l11.169,32.744l-27.84,8.925L117.451,307.036z"/>
		<path class="st2" d="M248.612,356.583L248.612,356.583l-31.388,4.981l15.372-86.001l32.786-5.224l42.027,76.871l-31.33,5.005
			l-4.312-9.729l-22.397,3.563L248.612,356.583z M263.47,323.937l-5.754-13.8c-1.425-3.34-2.532-6.805-3.592-10.193l-1.09,0.172
			l-1.438,25.724L263.47,323.937z"/>
		<path class="st2" d="M308.131,265.032L308.131,265.032l34.909-1.333c15.911-0.625,32.385,2.612,33.13,21.613
			c0.315,7.227-3.024,14.481-10.199,17.077l0.037,0.656c9.104,2.797,15.039,9.155,15.38,18.993
			c0.692,16.965-14.846,23.339-29.276,23.929l-40.826,1.555L308.131,265.032z M339.868,295.602L339.868,295.602
			c4.374-0.183,9.282-0.808,9.08-6.491c-0.234-6.123-5.825-5.486-10.185-5.326l-2.094,0.107l0.445,11.797L339.868,295.602z
			 M338.342,326.762l3.376-0.115c4.904-0.201,12.034-0.601,11.783-7.36c-0.245-6.909-7.931-6.496-12.735-6.316l-2.961,0.114
			L338.342,326.762z"/>
		<path class="st2" d="M391.583,261.175L391.583,261.175l36.155,2.619c18.539,1.359,33.711,10.354,32.185,31.111
			c-0.87,12.447-6.066,17.353-17.513,20.239l-0.058,0.656c1.481,1.345,3.236,2.769,4.698,5.286l15.956,28.061l-34.492-2.505
			l-11.191-27.396l-0.536-0.032l-1.947,26.383l-29.255-2.112L391.583,261.175z M418.213,299.762l2.074,0.156
			c4.907,0.351,9.876-0.045,10.312-6.141c0.454-6.358-3.953-7.436-9.064-7.822l-2.307-0.167L418.213,299.762z"/>
		<path class="st2" d="M487.617,354.262L487.617,354.262l-31.158-6.167l44.145-75.427l32.561,6.44l12.867,86.676l-31.127-6.125
			l-0.708-10.617l-22.225-4.413L487.617,354.262z M512.843,328.76l-0.596-14.947c-0.201-3.614-0.057-7.261,0.114-10.785
			l-1.079-0.238l-10.271,23.655L512.843,328.76z"/>
		<path class="st2" d="M561.385,340.522l1.089,1.609c3.822,5.605,8.961,10.785,15.55,12.867c2.827,0.887,7.661,1.164,8.815-2.363
			c1.122-3.54-2.54-5.059-5.006-6.411l-5.393-2.857c-10.523-5.545-17.835-15.106-13.916-27.412
			c5.948-18.698,26.283-23.722,43.378-18.233c8.972,2.83,16.557,7.648,22.741,14.826l-14.104,17.673
			c-3.877-4.91-8.562-9.253-14.706-11.229c-2.499-0.821-6.433-1.031-7.477,2.193c-0.935,2.947,2.478,4.491,4.529,5.706l5.966,3.502
			c11.223,6.595,17.939,15.83,13.661,29.198c-5.97,18.739-26.013,22.593-43.012,17.194c-9.916-3.156-20.518-9.548-27.944-16.833
			L561.385,340.522z"/>
	</g>
</g>
<g>
	<path class="st1" d="M237.734,623.735c0,0-120.359-8.12-203.858,13.266c18.799-17.499,41.126-33.263,41.126-33.263
		s-28.128-18.878-67.1-18.902c48.783-6.188,129.432-10.747,133.861-10.272C146.184,575.038,237.734,623.735,237.734,623.735z"/>
	<path class="st1" d="M561.768,557.236c0,0,101.119-12.753,191.372-4.974c-50.569,7.014-66.707,24.117-66.707,24.117
		s47.668,14.039,55.515,24.67c-46.899-3.488-96.629,7.324-102.84,8.52C632.895,610.765,561.768,557.236,561.768,557.236z"/>
	<g>
		<g>
			<defs>
				<path id="SVGID_2_" d="M564.839,557.272c0,0,101.115-12.755,191.369-4.968c-50.569,7.006-66.707,24.112-66.707,24.112
					s47.663,14.044,55.515,24.666c-46.901-3.481-96.629,7.328-102.842,8.522C635.968,610.803,564.839,557.272,564.839,557.272z"/>
			</defs>
			<clipPath id="SVGID_3_">
				<use xlink:href="#SVGID_2_"  style="overflow:visible;"/>
			</clipPath>
			<g class="st5">
				
					<rect x="565.353" y="541.707" transform="matrix(0.9951 -0.0986 0.0986 0.9951 -53.9862 68.8916)" class="st6" width="209.632" height="78.124"/>
				
					<rect x="565.347" y="569.007" transform="matrix(0.9951 -0.0986 0.0986 0.9951 -53.9809 68.8907)" class="st7" width="209.63" height="23.415"/>
				
					<rect x="568.05" y="596.303" transform="matrix(0.9951 -0.0986 0.0986 0.9951 -56.6593 69.291)" class="st8" width="209.632" height="23.421"/>
				
					<rect x="562.657" y="541.863" transform="matrix(0.9951 -0.0986 0.0986 0.9951 -51.3236 68.5017)" class="st9" width="209.631" height="23.412"/>
			</g>
		</g>
		<g>
			<defs>
				<path id="SVGID_1_" d="M237.227,623.217c0,0-120.358-8.12-203.856,13.264c18.794-17.495,41.122-33.259,41.122-33.259
					s-28.124-18.88-67.098-18.904c48.785-6.19,129.432-10.747,133.857-10.27C145.677,574.52,237.227,623.217,237.227,623.217z"/>
			</defs>
			<clipPath id="SVGID_4_">
				<use xlink:href="#SVGID_1_"  style="overflow:visible;"/>
			</clipPath>
			<g class="st10">
				
					<rect x="2.519" y="569.187" transform="matrix(0.9951 -0.0986 0.0986 0.9951 -58.6251 16.0968)" class="st6" width="262.075" height="64.068"/>
				<polygon class="st7" points="264.9,597.814 4.098,623.642 2.203,604.541 263.005,578.7 				"/>
				<polygon class="st8" points="267.112,620.202 6.316,646.043 4.422,626.924 265.226,601.087 				"/>
				
					<rect x="0.309" y="569.313" transform="matrix(0.9951 -0.0986 0.0986 0.9951 -56.4279 15.7673)" class="st9" width="262.073" height="19.198"/>
			</g>
		</g>
		<polygon class="st11" points="642.821,559.427 562.442,557.245 559.008,568.445 		"/>
		<linearGradient id="SVGID_5_" gradientUnits="userSpaceOnUse" x1="286.6877" y1="498.9207" x2="478.9658" y2="695.2036">
			<stop  offset="0" style="stop-color:#3FAE2A"/>
			<stop  offset="0.0999" style="stop-color:#67BB2A"/>
			<stop  offset="0.2235" style="stop-color:#92C92A"/>
			<stop  offset="0.335" style="stop-color:#B1D32A"/>
			<stop  offset="0.4291" style="stop-color:#C4D92A"/>
			<stop  offset="0.4946" style="stop-color:#CBDB2A"/>
			<stop  offset="1" style="stop-color:#3FAE2A"/>
		</linearGradient>
		<path class="st12" d="M107.466,565.023l1.097,55.264c0,0,69.66-12.201,197.92-7.358c135.442,5.126,244.033,18.814,335.868,2.188
			c1.132-21.763,0.638-55.677,0.638-55.677s-81.668,9.834-200.418,2.476c-106.609-6.615-193.279-16.256-332.474,1.456l-2.496,0.636
			L107.466,565.023z"/>
		<g>
			<path class="st6" d="M152.348,606.816c-1.139,0.082-2.053-0.481-2.745-1.688l-6.493-10.563c-0.292-0.478-0.65-0.71-1.072-0.697
				c-0.436,0.015-0.785,0.263-1.045,0.747l0.069-0.108l0.605,8.354c0.093,1.285-0.173,2.399-0.8,3.34
				c-0.621,1.01-1.443,1.551-2.466,1.625l-0.058,0.004c-1.023,0.075-1.915-0.343-2.675-1.253c-0.755-0.841-1.18-1.905-1.273-3.19
				l-1.924-26.579c-0.093-1.285,0.174-2.399,0.8-3.34c0.622-1.009,1.443-1.552,2.466-1.626l0.058-0.004
				c1.023-0.074,1.915,0.344,2.676,1.254c0.755,0.841,1.179,1.904,1.272,3.19l0.445,6.143c0.006,0.086,0.015,0.128,0.028,0.127
				l-0.038,0.003l4.307-9.227c0.513-1.26,1.333-1.931,2.458-2.013l0.077-0.005c1.24-0.09,2.2,0.556,2.879,1.936
				c0.663,1.347,0.715,2.697,0.158,4.046l-2.569,6.336c-0.719,1.792-0.593,3.522,0.376,5.192l6.725,11.633
				c0.733,1.256,0.87,2.598,0.408,4.026c-0.473,1.465-1.336,2.242-2.589,2.332L152.348,606.816z"/>
			<path class="st6" d="M180.969,597.607c0.806-0.043,1.505,0.299,2.096,1.024c0.588,0.674,0.909,1.517,0.963,2.529l0.006,0.103
				c0.054,1.012-0.175,1.885-0.688,2.617c-0.51,0.785-1.168,1.198-1.975,1.242l-11.294,0.604c-1.191,0.063-2.233-0.44-3.125-1.511
				c-0.864-1.038-1.336-2.311-1.417-3.822l-1.334-24.911c-0.08-1.51,0.253-2.827,1.003-3.951c0.772-1.159,1.754-1.771,2.945-1.835
				l10.699-0.573c0.934-0.05,1.715,0.382,2.343,1.295c0.587,0.897,0.821,1.917,0.703,3.059l-0.015,0.078
				c-0.096,0.848-0.391,1.578-0.884,2.19c-0.484,0.559-1.072,0.858-1.763,0.894l-7.644,0.409l0.219,4.091l7.184-0.384
				c0.806-0.044,1.505,0.298,2.096,1.023c0.588,0.674,0.909,1.508,0.962,2.504l0.004,0.077c0.053,0.995-0.182,1.885-0.705,2.67
				c-0.499,0.748-1.152,1.145-1.959,1.189l-7.184,0.384l0.505,9.445L180.969,597.607z"/>
			<path class="st6" d="M202.75,599.532c0.043,1.271-0.267,2.382-0.928,3.331c-0.649,0.933-1.48,1.416-2.492,1.449l-0.058,0.002
				c-1.012,0.034-1.874-0.392-2.583-1.279c-0.723-0.905-1.105-1.991-1.148-3.263l-0.891-26.736
				c-0.043-1.271,0.267-2.381,0.929-3.331c0.649-0.933,1.48-1.416,2.492-1.449l1.806-0.06c1.282-0.043,2.298,0.619,3.05,1.987
				l10.83,19.468l-0.575-17.232c-0.043-1.27,0.261-2.363,0.91-3.279c0.673-0.968,1.51-1.469,2.509-1.502l0.058-0.002
				c1.012-0.034,1.873,0.393,2.584,1.281c0.723,0.905,1.105,1.992,1.148,3.262l0.81,24.289c0.065,1.941-0.405,3.633-1.409,5.077
				c-0.992,1.425-2.238,2.163-3.738,2.213l-0.096,0.003c-2.012,0.066-3.575-1.016-4.688-3.248l-9.093-18.159L202.75,599.532z"/>
			<path class="st6" d="M237.973,591.441l-6.846-17.599c-0.568-1.471-0.535-2.914,0.103-4.331c0.661-1.486,1.646-2.237,2.955-2.252
				l0.346-0.004c1.616-0.02,2.717,0.947,3.305,2.899c2.55,8.492,3.865,12.866,3.946,13.123l3.69-13.24
				c0.54-1.948,1.612-2.932,3.215-2.95l0.058-0.001c1.346-0.016,2.362,0.728,3.047,2.232c0.671,1.436,0.714,2.895,0.129,4.38
				l-6.661,17.373l0.088,7.422c0.015,1.289-0.305,2.392-0.962,3.311c-0.707,0.953-1.567,1.436-2.579,1.448l-0.077,0.001
				c-1,0.013-1.866-0.45-2.595-1.387c-0.703-0.902-1.062-1.997-1.078-3.286L237.973,591.441z"/>
			<path class="st6" d="M285.974,597.036c0.395,1.465,0.246,2.855-0.448,4.171c-0.745,1.35-1.739,2.017-2.982,2.004l-0.077-0.001
				c-0.795-0.009-1.511-0.325-2.145-0.95c-0.609-0.608-1.018-1.394-1.225-2.359l-1.123-4.779l-7.638-0.081l-1.126,4.679
				c-0.229,0.995-0.66,1.789-1.295,2.384c-0.647,0.629-1.368,0.939-2.164,0.931l-0.326-0.003c-1.257-0.014-2.231-0.694-2.923-2.042
				c-0.666-1.278-0.798-2.663-0.398-4.154l6.647-24.8c0.4-1.49,1.086-2.694,2.057-3.612c0.997-0.951,2.118-1.421,3.362-1.408
				l0.059,0.001c1.217,0.013,2.309,0.488,3.274,1.426c0.965,0.921,1.639,2.122,2.021,3.604L285.974,597.036z M276.096,587.164
				l0.224,0.62c-0.992-4.357-1.777-8.369-2.354-12.035l0.692,0.008c-0.479,2.847-1.274,6.636-2.39,11.367L276.096,587.164z"/>
			<path class="st6" d="M306.93,572.411l0.054,0.13l-4.618,6.016l-4.99,0.177l3.556-4.142c-0.156,0.081-0.622-0.424-1.394-1.514
				c-0.773-1.09-1.136-2.416-1.087-3.979c-0.034-0.964,0.404-2.012,1.312-3.143c0.908-1.131,1.99-1.677,3.246-1.637
				c1.243,0.039,2.283,0.648,3.118,1.826c0.835,1.179,1.228,2.557,1.177,4.138C307.279,571.107,307.154,571.817,306.93,572.411z"/>
			<path class="st6" d="M329.865,583.125c2.382,1.331,4.088,2.902,5.122,4.712c1.081,1.882,1.553,4.126,1.413,6.734
				c-0.167,3.157-1.14,5.729-2.915,7.716c-2.116,2.365-5.057,3.447-8.822,3.246c-1.409-0.076-3.173-0.591-5.292-1.547
				c-0.778-0.351-1.341-0.991-1.689-1.922c-0.347-0.965-0.398-1.939-0.152-2.924l0.023-0.077c0.263-1.087,0.794-1.893,1.593-2.418
				c0.786-0.527,1.597-0.595,2.438-0.206c1.616,0.774,2.897,1.187,3.844,1.237c1.14,0.061,2.032-0.176,2.678-0.709
				c0.629-0.499,0.971-1.239,1.023-2.216c0.045-0.858-0.179-1.593-0.673-2.205c-0.578-0.701-1.618-1.454-3.116-2.256
				c-4.93-2.689-7.263-6.495-7-11.419c0.176-3.329,1.294-5.971,3.35-7.925c2.044-1.973,4.628-2.876,7.753-2.71
				c1.126,0.06,2.602,0.457,4.424,1.191c0.819,0.301,1.407,0.943,1.766,1.926c0.347,0.948,0.392,1.922,0.133,2.923l-0.025,0.102
				c-0.271,0.984-0.767,1.723-1.485,2.218c-0.76,0.51-1.535,0.599-2.326,0.263c-1.129-0.49-2.124-0.758-2.981-0.804
				c-1.063-0.057-1.898,0.191-2.506,0.744c-0.513,0.455-0.788,1.051-0.827,1.788c-0.045,0.858,0.236,1.596,0.845,2.213
				C327.024,581.364,328.159,582.139,329.865,583.125z"/>
			<path class="st6" d="M377.579,586.077c2.376,1.343,4.075,2.922,5.101,4.736c1.071,1.887,1.532,4.134,1.382,6.741
				c-0.183,3.157-1.167,5.724-2.952,7.702c-2.127,2.355-5.072,3.424-8.836,3.206c-1.408-0.082-3.17-0.607-5.284-1.571
				c-0.776-0.355-1.337-0.998-1.68-1.931c-0.342-0.966-0.389-1.941-0.139-2.925l0.023-0.076c0.268-1.086,0.804-1.89,1.604-2.411
				c0.788-0.522,1.601-0.586,2.439-0.194c1.612,0.781,2.89,1.2,3.839,1.255c1.139,0.067,2.033-0.165,2.68-0.696
				c0.632-0.497,0.977-1.234,1.034-2.212c0.049-0.857-0.172-1.593-0.663-2.206c-0.575-0.706-1.61-1.463-3.104-2.272
				c-4.918-2.712-7.233-6.529-6.947-11.453c0.193-3.327,1.322-5.963,3.388-7.91c2.053-1.962,4.642-2.853,7.765-2.673
				c1.128,0.065,2.601,0.47,4.419,1.211c0.818,0.306,1.403,0.95,1.757,1.935c0.343,0.949,0.384,1.924,0.12,2.924l-0.026,0.102
				c-0.276,0.982-0.774,1.72-1.496,2.211c-0.762,0.506-1.537,0.591-2.326,0.253c-1.128-0.496-2.12-0.769-2.979-0.819
				c-1.062-0.062-1.899,0.183-2.508,0.732c-0.515,0.453-0.793,1.047-0.836,1.784c-0.05,0.858,0.228,1.597,0.835,2.217
				C374.748,584.305,375.878,585.084,377.579,586.077z"/>
			<path class="st6" d="M431.502,574.653c1.241,0.06,2.195,0.787,2.859,2.178c0.615,1.337,0.681,2.734,0.2,4.19l-7.986,24.742
				c-0.441,1.406-1.15,2.523-2.128,3.354c-0.99,0.828-2.063,1.215-3.215,1.159l-0.077-0.003c-1.269-0.062-2.371-0.632-3.307-1.71
				c-0.911-1.043-1.483-2.36-1.714-3.954l-1.728-12.315l-2.939,12.088c-0.372,1.564-1.083,2.836-2.131,3.818
				c-1.011,0.948-2.142,1.392-3.397,1.33l-0.077-0.003c-1.152-0.057-2.181-0.546-3.087-1.467c-0.892-0.921-1.496-2.102-1.81-3.546
				l-5.539-25.402c-0.325-1.496-0.116-2.879,0.627-4.15c0.77-1.321,1.788-1.95,3.056-1.889l0.078,0.004
				c0.78,0.038,1.476,0.382,2.087,1.03c0.585,0.631,0.97,1.424,1.155,2.379l2.292,12.239c0.826,4.392,1.463,8.431,1.912,12.117
				l-0.692-0.034c0.426-2.163,2.176-9.87,5.25-23.12c0.26-1.14,0.761-2.07,1.503-2.791c0.779-0.736,1.637-1.081,2.571-1.036
				l0.059,0.003c0.948,0.046,1.761,0.473,2.441,1.28c0.68,0.79,1.095,1.765,1.243,2.925c1.756,13.486,2.755,21.327,2.993,23.523
				l-0.691-0.033c0.793-3.643,1.814-7.601,3.063-11.875l3.491-11.931c0.263-0.95,0.719-1.71,1.363-2.281
				c0.668-0.587,1.401-0.861,2.195-0.822L431.502,574.653z"/>
			<path class="st6" d="M459.591,604.35c0.808,0.032,1.473,0.436,1.995,1.212c0.523,0.725,0.766,1.594,0.727,2.607l-0.003,0.103
				c-0.039,1.013-0.349,1.861-0.926,2.544c-0.579,0.734-1.273,1.085-2.081,1.055l-11.301-0.435c-1.193-0.045-2.184-0.643-2.972-1.79
				c-0.766-1.113-1.119-2.425-1.062-3.936l0.957-24.928c0.059-1.511,0.512-2.792,1.359-3.843c0.876-1.084,1.909-1.603,3.101-1.557
				l10.707,0.411c0.935,0.036,1.672,0.537,2.212,1.504c0.503,0.948,0.643,1.985,0.42,3.111l-0.022,0.077
				c-0.173,0.836-0.534,1.536-1.082,2.099c-0.532,0.513-1.144,0.756-1.836,0.729l-7.651-0.294l-0.157,4.095l7.188,0.276
				c0.808,0.031,1.472,0.435,1.995,1.212c0.522,0.725,0.765,1.585,0.727,2.581l-0.002,0.077c-0.038,0.997-0.354,1.861-0.946,2.595
				c-0.566,0.7-1.254,1.035-2.06,1.004l-7.189-0.276l-0.364,9.452L459.591,604.35z"/>
			<path class="st6" d="M488.772,605.278c0.807,0.023,1.476,0.421,2.005,1.192c0.531,0.721,0.781,1.587,0.753,2.6l-0.003,0.103
				c-0.029,1.014-0.33,1.865-0.901,2.552c-0.574,0.74-1.263,1.098-2.071,1.075l-11.305-0.326c-1.193-0.034-2.189-0.623-2.989-1.762
				c-0.776-1.106-1.143-2.414-1.099-3.925l0.72-24.936c0.045-1.511,0.486-2.796,1.324-3.855c0.866-1.092,1.894-1.621,3.086-1.587
				l10.711,0.309c0.934,0.027,1.677,0.522,2.227,1.483c0.512,0.943,0.662,1.979,0.45,3.107l-0.021,0.077
				c-0.166,0.837-0.52,1.54-1.062,2.109c-0.529,0.518-1.14,0.766-1.83,0.747l-7.654-0.221l-0.117,4.096l7.192,0.208
				c0.806,0.023,1.475,0.421,2.005,1.193c0.53,0.721,0.781,1.578,0.753,2.573l-0.003,0.078c-0.028,0.996-0.336,1.865-0.921,2.603
				c-0.559,0.706-1.242,1.047-2.05,1.023l-7.192-0.208l-0.273,9.455L488.772,605.278z"/>
			<path class="st6" d="M502.549,581.267c-0.175-1.051-0.013-1.994,0.488-2.828c0.553-0.901,1.259-1.345,2.118-1.332l16.175,0.261
				c0.872,0.014,1.563,0.481,2.075,1.399c0.486,0.85,0.618,1.772,0.398,2.765v0.051c-0.155,0.771-0.466,1.393-0.936,1.866
				c-0.495,0.491-1.05,0.731-1.665,0.721l-4.365-0.07l-0.394,24.481c-0.021,1.306-0.378,2.417-1.074,3.332
				c-0.746,0.951-1.64,1.418-2.678,1.401h-0.058c-1.026-0.017-1.895-0.513-2.612-1.486c-0.69-0.939-1.023-2.061-1.003-3.367
				l0.394-24.481l-4.367-0.07c-0.602-0.01-1.143-0.267-1.622-0.773c-0.454-0.488-0.739-1.094-0.855-1.818L502.549,581.267z"/>
			<path class="st6" d="M549.433,606.013c0.808-0.002,1.488,0.375,2.041,1.13c0.552,0.703,0.829,1.561,0.832,2.575v0.103
				c0.002,1.014-0.272,1.873-0.822,2.579c-0.55,0.757-1.228,1.136-2.036,1.138l-11.311,0.021c-1.192,0.002-2.207-0.554-3.041-1.669
				c-0.811-1.08-1.217-2.377-1.221-3.889l-0.048-24.947c-0.003-1.512,0.398-2.81,1.205-3.894c0.83-1.118,1.843-1.678,3.035-1.681
				l10.714-0.021c0.936-0.002,1.694,0.47,2.273,1.413c0.54,0.927,0.722,1.957,0.545,3.092l-0.019,0.077
				c-0.14,0.843-0.471,1.556-0.996,2.141c-0.513,0.534-1.114,0.801-1.807,0.803l-7.655,0.015l0.008,4.098l7.194-0.015
				c0.807-0.001,1.488,0.375,2.04,1.13c0.552,0.705,0.831,1.553,0.833,2.55v0.077c0.002,0.998-0.279,1.874-0.841,2.631
				c-0.538,0.723-1.21,1.085-2.018,1.086l-7.194,0.014l0.018,9.458L549.433,606.013z"/>
			<path class="st6" d="M574.234,591.183c2.485,1.129,4.316,2.552,5.497,4.269c1.234,1.786,1.89,3.984,1.968,6.594
				c0.095,3.16-0.66,5.805-2.264,7.932c-1.914,2.532-4.754,3.855-8.521,3.967c-1.411,0.043-3.211-0.325-5.403-1.101
				c-0.804-0.286-1.419-0.877-1.843-1.776c-0.425-0.932-0.558-1.9-0.394-2.902l0.017-0.078c0.172-1.104,0.634-1.952,1.387-2.541
				c0.739-0.59,1.544-0.726,2.412-0.407c1.675,0.637,2.985,0.941,3.934,0.914c1.141-0.035,2.011-0.344,2.609-0.93
				c0.586-0.55,0.865-1.314,0.836-2.294c-0.026-0.858-0.309-1.571-0.853-2.141c-0.635-0.651-1.732-1.314-3.293-1.989
				c-5.135-2.271-7.777-5.87-7.925-10.799c-0.099-3.331,0.795-6.057,2.682-8.175c1.873-2.136,4.373-3.251,7.502-3.345
				c1.127-0.034,2.629,0.24,4.506,0.82c0.841,0.232,1.482,0.823,1.92,1.773c0.425,0.916,0.55,1.884,0.375,2.902l-0.016,0.104
				c-0.189,1.003-0.619,1.78-1.296,2.333c-0.713,0.572-1.48,0.724-2.295,0.455c-1.165-0.394-2.178-0.579-3.037-0.553
				c-1.064,0.032-1.876,0.348-2.435,0.949c-0.473,0.496-0.698,1.113-0.676,1.851c0.024,0.86,0.368,1.571,1.026,2.136
				C571.258,589.665,572.452,590.342,574.234,591.183z"/>
			<path class="st6" d="M591.165,580.565c-0.291-1.025-0.234-1.98,0.171-2.864c0.449-0.958,1.101-1.478,1.956-1.56l16.103-1.54
				c0.869-0.083,1.608,0.304,2.218,1.16c0.578,0.789,0.812,1.691,0.703,2.702l0.004,0.051c-0.066,0.783-0.306,1.437-0.721,1.959
				c-0.438,0.542-0.963,0.843-1.576,0.901l-4.345,0.416l2.33,24.372c0.125,1.301-0.108,2.443-0.696,3.432
				c-0.634,1.028-1.469,1.592-2.503,1.69l-0.058,0.005c-1.022,0.098-1.941-0.297-2.761-1.185c-0.791-0.856-1.247-1.934-1.372-3.234
				l-2.331-24.372l-4.347,0.416c-0.6,0.058-1.166-0.139-1.699-0.588c-0.504-0.435-0.856-1.006-1.052-1.712L591.165,580.565z"/>
		</g>
	</g>
</g>
</svg>